<svg width="227" height="162" viewBox="0 0 227 162" fill="none" xmlns="http://www.w3.org/2000/svg">
<circle cx="118.5" cy="86.5" r="66.5" fill="#C08261" fill-opacity="0.5"/>
<circle cx="118.5" cy="86.5" r="75.5" fill="#C08261" fill-opacity="0.2"/>
<circle cx="119" cy="87" r="56" fill="#C08261"/>
<g clip-path="url(#clip0_3172_4633)">
<path fill-rule="evenodd" clip-rule="evenodd" d="M145.548 63.7936C147.251 65.2009 147.491 67.7222 146.083 69.4251L113.924 108.342L113.914 108.354C113.182 109.232 112.264 109.937 111.226 110.415C110.189 110.895 109.057 111.136 107.914 111.123C106.752 111.109 105.605 110.831 104.566 110.311C103.53 109.794 102.625 109.049 101.917 108.132C101.915 108.129 101.913 108.126 101.91 108.123L91.8428 95.179C90.4865 93.4352 90.8006 90.9221 92.5444 89.5658C94.2882 88.2095 96.8013 88.5237 98.1576 90.2674L108.012 102.937L139.917 64.329C141.324 62.6261 143.845 62.3864 145.548 63.7936Z" fill="#FFFDE2"/>
</g>
<circle cx="9" cy="87" r="9" fill="#C08261" fill-opacity="0.5"/>
<circle cx="180.5" cy="5.5" r="5.5" fill="#C08261" fill-opacity="0.5"/>
<circle cx="215.5" cy="150.5" r="11.5" fill="#C08261" fill-opacity="0.5"/>
<defs>
<clipPath id="clip0_3172_4633">
<rect width="56" height="56" fill="white" transform="translate(91 59)"/>
</clipPath>
</defs>
</svg>
